<?xml version="1.0" standalone="no"?>
<!DOCTYPE svg PUBLIC "-//W3C//DTD SVG 20010904//EN"
 "http://www.w3.org/TR/2001/REC-SVG-20010904/DTD/svg10.dtd">
<svg version="1.0" xmlns="http://www.w3.org/2000/svg"
 width="300.000000pt" height="300.000000pt" viewBox="0 0 300.000000 300.000000"
 preserveAspectRatio="xMidYMid meet">
<metadata>
Created by potrace 1.11, written by Peter Selinger 2001-2013
</metadata>
<g transform="translate(0.000000,300.000000) scale(0.100000,-0.100000)"
fill="#000000" stroke="none">
<path d="M1355 2524 c-11 -2 -57 -11 -102 -20 l-83 -17 0 -123 c0 -68 2 -124
5 -124 2 0 39 12 82 27 65 22 96 27 188 27 93 0 119 -3 168 -23 117 -47 209
-170 242 -327 16 -74 20 -356 7 -429 l-8 -40 -28 44 c-104 162 -298 251 -489
223 -177 -26 -294 -118 -385 -303 -73 -146 -96 -249 -96 -419 0 -120 3 -144
27 -213 15 -42 39 -96 53 -119 63 -100 185 -183 304 -209 73 -16 222 -7 291
17 331 116 559 530 610 1108 29 325 -40 580 -203 752 -70 73 -127 110 -225
146 -46 16 -87 21 -198 24 -77 1 -149 1 -160 -2z m185 -996 c88 -27 164 -103
228 -226 l40 -77 -22 -70 c-71 -219 -215 -422 -339 -475 -104 -45 -223 -12
-285 80 -78 116 -66 396 27 595 75 161 195 220 351 173z"/>
</g>
</svg>
